<svg width="100" height="68" viewBox="0 0 100 68" fill="none" xmlns="http://www.w3.org/2000/svg">
<g clip-path="url(#clip0_5792_2)">
<path d="M9.39597 18.792C9.39597 16.1973 7.29261 14.094 4.69799 14.094C2.10336 14.094 0 16.1973 0 18.792V33.5571C0 36.1517 2.10336 38.255 4.69799 38.255C7.29261 38.255 9.39597 36.1517 9.39597 33.5571V18.792Z" fill="#B91F33"/>
<path d="M100 18.792C100 16.1973 97.8966 14.094 95.302 14.094C92.7074 14.094 90.604 16.1973 90.604 18.792V33.5571C90.604 36.1517 92.7074 38.255 95.302 38.255C97.8966 38.255 100 36.1517 100 33.5571V18.792Z" fill="#B91F33"/>
<path d="M54.3625 18.792C54.3625 16.1973 52.2592 14.094 49.6645 14.094C47.0699 14.094 44.9666 16.1973 44.9666 18.792V33.5571C44.9666 36.1517 47.0699 38.255 49.6645 38.255C52.2592 38.255 54.3625 36.1517 54.3625 33.5571V18.792Z" fill="#B91F33"/>
<path d="M24.1611 12.7517C24.1611 10.157 22.0577 8.05368 19.4631 8.05368C16.8685 8.05368 14.7651 10.157 14.7651 12.7517V39.5973C14.7651 42.1919 16.8685 44.2953 19.4631 44.2953C22.0577 44.2953 24.1611 42.1919 24.1611 39.5973V12.7517Z" fill="#B91F33"/>
<path d="M84.5637 12.7517C84.5637 10.157 82.4603 8.05368 79.8657 8.05368C77.2711 8.05368 75.1677 10.157 75.1677 12.7517V39.5973C75.1677 42.1919 77.2711 44.2953 79.8657 44.2953C82.4603 44.2953 84.5637 42.1919 84.5637 39.5973V12.7517Z" fill="#B91F33"/>
<path d="M39.5974 4.69799C39.5974 2.10336 37.494 0 34.8994 0C32.3048 0 30.2014 2.10336 30.2014 4.69799V47.651C30.2014 50.2456 32.3048 52.349 34.8994 52.349C37.494 52.349 39.5974 50.2456 39.5974 47.651V4.69799Z" fill="#B91F33"/>
<path d="M69.7986 4.69799C69.7986 2.10336 67.6952 0 65.1006 0C62.5059 0 60.4026 2.10336 60.4026 4.69799V47.651C60.4026 50.2456 62.5059 52.349 65.1006 52.349C67.6952 52.349 69.7986 50.2456 69.7986 47.651V4.69799Z" fill="#B91F33"/>
<path d="M16.2385 55.0336H19.4132V67.1141H16.2385V62.3346H13.9129V67.1141H10.7383V55.0336H13.9129V59.9824H16.2385V55.0336Z" fill="#3E0606"/>
<path d="M26.9217 67.1141L26.5526 65.3077H23.7102L23.3226 67.1141H20.1479L23.1934 55.0336H27.1247L30.1702 67.1141H26.9217ZM24.2085 62.9744H26.0543L25.1498 58.6276L24.2085 62.9744Z" fill="#3E0606"/>
<path d="M34.1378 62.8238V67.1141H30.9077V55.0336H36.3895C38.1983 55.0336 39.1027 55.8114 39.1027 57.3669V60.4905C39.1027 61.6822 38.5736 62.4161 37.5154 62.6921L39.6934 67.1141H36.2234L34.3408 62.8238H34.1378ZM35.4113 57.3857H34.1378V60.5846H35.4113C35.7189 60.5846 35.8727 60.4466 35.8727 60.1706V57.7997C35.8727 57.5237 35.7189 57.3857 35.4113 57.3857Z" fill="#3E0606"/>
<path d="M40.5732 55.0336H46.0181C47.8269 55.0336 48.7313 55.8114 48.7313 57.3669V64.7808C48.7313 66.3363 47.8269 67.1141 46.0181 67.1141H40.5732V55.0336ZM45.5013 64.5362V57.6115C45.5013 57.3355 45.3475 57.1975 45.0399 57.1975H43.8032V64.9501H45.0399C45.3475 64.9501 45.5013 64.8122 45.5013 64.5362Z" fill="#3E0606"/>
<path d="M61.7898 59.5497H58.5598V57.6115C58.5598 57.3355 58.406 57.1975 58.0984 57.1975H57.4524C57.1448 57.1975 56.991 57.3355 56.991 57.6115V64.5362C56.991 64.8122 57.1448 64.9501 57.4524 64.9501H58.0984C58.406 64.9501 58.5598 64.8122 58.5598 64.5362V62.6733H61.7898V64.7808C61.7898 66.3363 60.8855 67.1141 59.0767 67.1141H56.4742C54.6654 67.1141 53.761 66.3363 53.761 64.7808V57.3669C53.761 55.8114 54.6654 55.0336 56.4742 55.0336H59.0767C60.8855 55.0336 61.7898 55.8114 61.7898 57.3669V59.5497Z" fill="#3E0606"/>
<path d="M65.6495 55.0336H68.3812C70.19 55.0336 71.0947 55.8114 71.0947 57.3669V64.7808C71.0947 66.3363 70.19 67.1141 68.3812 67.1141H65.6495C63.8407 67.1141 62.9363 66.3363 62.9363 64.7808V57.3669C62.9363 55.8114 63.8407 55.0336 65.6495 55.0336ZM67.8645 64.348V57.7997C67.8645 57.5237 67.7108 57.3857 67.4027 57.3857H66.6278C66.3201 57.3857 66.1663 57.5237 66.1663 57.7997V64.348C66.1663 64.624 66.3201 64.762 66.6278 64.762H67.4027C67.7108 64.762 67.8645 64.624 67.8645 64.348Z" fill="#3E0606"/>
<path d="M75.739 62.8238V67.1141H72.5088V55.0336H77.9907C79.7994 55.0336 80.7034 55.8114 80.7034 57.3669V60.4905C80.7034 61.6822 80.1746 62.4161 79.1162 62.6921L81.294 67.1141H77.8242L75.9417 62.8238H75.739ZM77.0121 57.3857H75.739V60.5846H77.0121C77.3202 60.5846 77.4739 60.4466 77.4739 60.1706V57.7997C77.4739 57.5237 77.3202 57.3857 77.0121 57.3857Z" fill="#3E0606"/>
<path d="M85.2195 64.762H89.2617V67.1141H81.9893V55.0336H89.0953V57.3857H85.2195V59.8507H88.5604V62.2028H85.2195V64.762Z" fill="#3E0606"/>
</g>
<defs>
<clipPath id="clip0_5792_2">
<rect width="100" height="67.1141" fill="white"/>
</clipPath>
</defs>
</svg>
